<svg width="59" height="59" viewBox="0 0 59 59" fill="none" xmlns="http://www.w3.org/2000/svg">
<g id="Group">
<g id="Group_2">
<path id="Vector" d="M40.1404 38.2825L50.04 48.182C50.5517 48.6938 50.5517 49.5251 50.04 50.0368C49.5282 50.5486 48.697 50.5486 48.1852 50.0368L38.2856 40.1373C37.7739 39.6255 37.7739 38.7943 38.2856 38.2825C38.7974 37.7707 39.6287 37.7707 40.1404 38.2825Z" fill="#191C20" stroke="#191C20" stroke-width="0.00195312"/>
</g>
<g id="Group_3">
<path id="Vector_2" d="M10.4471 8.58718L20.3466 18.4867C20.8584 18.9985 20.8584 19.8298 20.3466 20.3415C19.8349 20.8533 19.0036 20.8533 18.4918 20.3415L8.59229 10.442C8.08052 9.9302 8.08052 9.09895 8.59229 8.58718C9.10405 8.07542 9.93531 8.07542 10.4471 8.58718Z" fill="#191C20" stroke="#191C20" stroke-width="0.00195312"/>
</g>
<g id="Group_4">
<path id="Vector_3" d="M20.3426 40.1405L10.443 50.04C9.93125 50.5518 9.1 50.5518 8.58823 50.04C8.07647 49.5283 8.07647 48.697 8.58823 48.1853L18.4878 38.2857C18.9995 37.7739 19.8308 37.7739 20.3426 38.2857C20.8543 38.7975 20.8543 39.6287 20.3426 40.1405Z" fill="#191C20" stroke="#191C20" stroke-width="0.00195312"/>
</g>
<g id="Group_5">
<path id="Vector_4" d="M50.0398 10.4393L40.1403 20.3389C39.6285 20.8506 38.7973 20.8506 38.2855 20.3389C37.7737 19.8271 37.7737 18.9958 38.2855 18.4841L48.185 8.58454C48.6968 8.07277 49.5281 8.07277 50.0398 8.58454C50.5516 9.0963 50.5516 9.92755 50.0398 10.4393Z" fill="#191C20" stroke="#191C20" stroke-width="0.00195312"/>
</g>
<g id="Group_6">
<path id="Vector_5" d="M30.624 43.3125L30.624 57.3126C30.624 58.0363 30.0362 58.6241 29.3125 58.6241C28.5887 58.6241 28.001 58.0363 28.001 57.3126L28.001 43.3125C28.001 42.5887 28.5887 42.001 29.3125 42.001C30.0362 42.001 30.624 42.5887 30.624 43.3125Z" fill="#191C20" stroke="#191C20" stroke-width="0.00195312"/>
</g>
<g id="Group_7">
<path id="Vector_6" d="M30.624 1.31249V15.3126C30.624 16.0363 30.0362 16.6241 29.3125 16.6241C28.5887 16.6241 28.001 16.0363 28.001 15.3126V1.31249C28.001 0.588741 28.5887 0.000955582 29.3125 0.000955582C30.0362 0.000955582 30.624 0.588741 30.624 1.31249Z" fill="#191C20" stroke="#191C20" stroke-width="0.00195312"/>
</g>
<g id="Group_8">
<path id="Vector_7" d="M15.3126 30.6241L1.31251 30.6241C0.588761 30.6241 0.000976562 30.0363 0.000976562 29.3126C0.000976562 28.5888 0.588761 28.001 1.31251 28.001L15.3126 28.001C16.0363 28.001 16.6241 28.5888 16.6241 29.3126C16.6241 30.0363 16.0363 30.6241 15.3126 30.6241Z" fill="#191C20" stroke="#191C20" stroke-width="0.00195312"/>
</g>
<g id="Group_9">
<path id="Vector_8" d="M57.3126 30.6241L43.3125 30.6241C42.5888 30.6241 42.001 30.0363 42.001 29.3126C42.001 28.5888 42.5888 28.001 43.3125 28.001L57.3126 28.001C58.0363 28.001 58.6241 28.5888 58.6241 29.3126C58.6241 30.0363 58.0363 30.6241 57.3126 30.6241Z" fill="#191C20" stroke="#191C20" stroke-width="0.00195312"/>
</g>
</g>
</svg>
